<?xml version="1.0" encoding="UTF-8"?><svg id="Layer_1" xmlns="http://www.w3.org/2000/svg" viewBox="0 0 54.66 27.74"><path d="M2.07,5.43l-.8,2.35h1.06v.22H.2v-.22h.77L3.69,0h.32l2.63,7.78h.91v.22h-3.26v-.22h1.14l-.8-2.35h-2.55ZM3.35,1.68l-1.2,3.54h2.39l-1.19-3.54Z"/><path d="M6.96.28v7.51h1.12v.22h-2.43v-.22h1.04V.22h-1.04v-.22h2.53l3.78,5.78V.22h-1.04v-.22h2.19v.22h-.88v7.78h-.19L6.96.28Z"/><path d="M13.12,5.43l-.8,2.35h1.06v.22h-2.12v-.22h.77L14.74,0h.32l2.63,7.78h.91v.22h-3.26v-.22h1.14l-.8-2.35h-2.55ZM14.4,1.68l-1.2,3.54h2.39l-1.19-3.54Z"/><path d="M6.6,11.82h-.32c-.12-.72-.26-1.1-.55-1.46-.34-.41-.95-.66-1.61-.66-.7,0-1.26.26-1.52.73-.25.44-.36,1.28-.36,2.95,0,.98.06,2.41.11,2.81.08.61.25.9.64,1.09.22.12.52.18.82.18.84,0,1.46-.5,1.46-1.19v-1.38h-1.2v-.3h3.6v.3h-.72v1.38c-.42.44-.66.65-.98.86-.61.4-1.43.65-2.13.65-2.09,0-3.59-1.73-3.59-4.11,0-1.37.47-2.49,1.37-3.31.7-.62,1.58-.98,2.45-.98.67,0,1.29.19,1.87.59l.36-.38h.32v2.24Z"/><path d="M12.75,10.37c.83.8,1.3,1.97,1.3,3.21,0,1.13-.49,2.33-1.3,3.11-.71.7-1.6,1.04-2.64,1.04s-1.92-.35-2.63-1.04c-.82-.79-1.3-1.97-1.3-3.17s.48-2.36,1.3-3.15c.7-.68,1.6-1.04,2.63-1.04s1.92.35,2.64,1.04ZM8.55,10.58c-.25.52-.36,1.43-.36,2.95,0,1.7.13,2.6.44,3.13.32.53.78.76,1.49.76.77,0,1.25-.29,1.56-.92.25-.5.36-1.43.36-2.9,0-1.76-.12-2.65-.44-3.18s-.78-.76-1.48-.76c-.78,0-1.27.29-1.57.92Z"/><path d="M13.1,17.28v-7.4h-.14v-.3h2.95l1.45,4.95,1.5-4.95h2.89v.3h-.96v7.4h.96v.3h-3.72v-.3h1.08v-7.32l-2.29,7.62h-.26l-2.28-7.7v6.54c-.01.78.06.86.65.86h.31v.3h-2.28v-.3"/><path d="M21.15,9.88h-.96v-.3h6.31l.18,2.04h-.31c-.29-1.34-.82-1.79-2.14-1.74h-1.4v3.49h.34c1.03.02,1.45-.4,1.44-1.42h.32v3.26h-.32c-.04-1.19-.36-1.54-1.46-1.55h-.31v3.61h1.12c1.69.02,2.28-.47,2.66-2.24h.32l-.17,2.54h-6.57v-.3h.96v-7.4Z"/><path d="M25.41,9.58h5.41v.23l-4.12,7.47h1.27c1.39.1,2.3-.7,2.6-2.25h.32l-.07,2.55h-5.96v-.38l4.02-7.32h-2.42"/><path d="M3.44,27h1.2v.36H0v-.36h.8v-7.28h-.8v-.36h4.64c1.26,0,1.73.07,2.25.34.67.34,1.08,1.03,1.08,1.87s-.37,1.44-1.02,1.79c-.42.22-1.22.35-2.21.35h-1.31v3.3ZM4.04,23.34c.91,0,1.15-.38,1.15-1.81s-.24-1.81-1.15-1.81h-.6v3.62h.6Z"/><path d="M14.87,20.45c.73.79,1.07,1.69,1.07,2.88,0,2.34-1.88,4.15-4.31,4.15-1.26,0-2.42-.5-3.24-1.38-.72-.78-1.07-1.7-1.07-2.83s.36-2.07,1.07-2.82c.84-.89,1.99-1.38,3.23-1.38s2.42.49,3.25,1.38ZM10.17,24.56c0,.86.11,1.45.34,1.87.22.38.67.65,1.13.65s.91-.26,1.13-.65c.23-.42.34-1,.34-1.87v-2.58c0-.88-.11-1.45-.34-1.87-.22-.38-.67-.65-1.13-.65s-.91.26-1.13.65c-.23.42-.34,1.01-.34,1.87v2.58Z"/><path d="M18.37,27.07h.84v.36h-4.28v-.36h.8v-7.28h-.8v-.36h4.49c1.35,0,1.75.05,2.29.26.64.25,1.03.86,1.03,1.62s-.37,1.31-1,1.6c-.38.18-.66.24-1.44.34,1.52.22,2.17.85,2.18,2.13v.48c.01.7.01.74.07.86.07.17.2.25.37.25.13,0,.24-.02.48-.13l.16.23c-.64.41-1.13.56-1.74.56s-1.18-.2-1.5-.55c-.34-.34-.48-.85-.48-1.63v-.68c0-1.03-.26-1.39-.98-1.39h-.49v3.69ZM18.98,23.02c.88,0,1.14-.37,1.14-1.61s-.26-1.62-1.14-1.62h-.61v3.23h.61Z"/><path d="M26.75,27.17h1.14v.36h-4.92v-.36h1.14v-7.28h-.36c-.84.02-1.35.73-1.62,2.19h-.4l.14-2.55h7.1l.14,2.55h-.41c-.25-1.46-.77-2.17-1.61-2.19h-.36v7.28Z"/><path d="M31.31,24.91c0,.72.08,1.21.28,1.56.25.44.8.73,1.42.73s1.17-.28,1.46-.76c.22-.36.29-.71.29-1.42v-3.99c.02-.92-.12-1.13-.83-1.14h-.18v-.36h2.4v.36h-.18c-.71.01-.85.2-.82,1.14v4.01c0,1.01-.18,1.56-.65,1.99-.54.49-1.32.71-2.58.71s-2.06-.24-2.61-.74c-.47-.44-.64-1-.64-2.09v-5.01h-.8v-.36h4.35v.36h-.91v5.01Z"/><path d="M42.52,24.39l-.49,1.56c-.41,1.21-1.54,1.62-3.07,1.62s-2.69-.59-3.43-1.72c-.47-.71-.72-1.58-.72-2.49,0-2.39,1.83-4.2,4.26-4.2.83,0,1.3.14,2.2.66l.48-.46h.4v2.54h-.4c-.1-.5-.19-.78-.36-1.08-.42-.74-1.26-1.27-2.04-1.27-.61,0-1.14.36-1.43,1.01-.2.46-.26.98-.26,2.31v1.29c0,.82.06,1.52.16,1.97.13.61.59,1.03,1.12,1.03.36,0,.68-.22.82-.54.13-.31.14-.42.14-1.4v-.84h-1.17v-.36h4.03"/><path d="M42.38,25.2l-.49,1.31c-.02.08-.05.17-.05.23,0,.19.14.26.5.26h.32v.36h-2.33v-.36h.29c.5-.01.71-.18.92-.76l2.7-6.88h.91l3.13,7.64h.68v.36h-4.34v-.36h.84l-.72-1.8h-2.38ZM44.61,24.84l-1.07-2.61-1.02,2.61h2.09Z"/><path d="M50.74,26.91h.55c1.13-.01,1.78-.24,2.22-.79.4-.48.61-.91.76-1.56h.4l-.16,2.71h-7.21v-.36h.8v-7.28h-.8v-.36h4.61v.36h-1.16v7.28Z"/></svg>